<?xml version="1.0" encoding="UTF-8"?>
<svg xmlns="http://www.w3.org/2000/svg" xmlns:xlink="http://www.w3.org/1999/xlink" viewBox="0 0 150 150" width="150px" height="150px">
<g id="surface10666303">
<path style=" stroke:none;fill-rule:nonzero;fill:rgb(42.352942%,45.882353%,49.019608%);fill-opacity:1;" d="M 123.574219 18.058594 C 120.164062 17.648438 118.289062 21.679688 116.367188 26.601562 C 111.292969 39.632812 96.386719 47.941406 83.308594 50.671875 C 80.425781 48.984375 77.085938 48 73.5 48 C 68.777344 48 64.441406 49.6875 61.066406 52.488281 C 48.152344 51.46875 38.589844 37.476562 38.484375 37.324219 L 33 29.132812 L 33 58.042969 C 31.792969 59.753906 30.949219 61.722656 30.46875 63.832031 C 24.316406 59.53125 17.15625 58.640625 11.882812 62.15625 C 8.953125 64.101562 7.019531 67.160156 6.304688 70.980469 C 5.261719 76.523438 6.902344 82.863281 10.78125 88.394531 C 15.5625 95.179688 22.453125 99.035156 28.6875 99.035156 C 31.359375 99.035156 33.902344 98.320312 36.117188 96.84375 C 39.058594 94.898438 40.992188 91.839844 41.707031 88.019531 C 41.988281 86.507812 42.058594 84.925781 41.953125 83.332031 C 43.417969 83.753906 44.941406 84 46.5 84 C 46.992188 84 47.472656 83.953125 47.964844 83.90625 C 48.023438 85.675781 47.917969 87.421875 47.601562 89.109375 C 46.582031 94.570312 43.757812 98.976562 39.433594 101.847656 C 38.285156 102.621094 37.03125 103.21875 35.730469 103.699219 C 38.941406 105.726562 42.46875 107.695312 45.84375 109.171875 C 57.914062 114.457031 69.175781 117.082031 79.3125 117.082031 C 87.84375 117.082031 95.542969 115.171875 102.28125 111.457031 C 103.851562 112.3125 105.421875 113.121094 106.96875 113.824219 C 115.136719 117.550781 123.222656 120.257812 129.234375 121.347656 C 129.351562 122.027344 129.492188 122.71875 129.714844 123.433594 C 131.929688 130.617188 143.835938 134.238281 146.203125 134.894531 L 150 135.9375 L 150 132 C 150.011719 127.078125 149.660156 115.21875 146.308594 111.597656 C 143.320312 108.363281 139.324219 107.238281 135.738281 108.503906 C 131.496094 104.953125 125.097656 101.003906 117.644531 97.40625 C 131.085938 76.816406 129.410156 36.65625 128.191406 27.304688 C 127.558594 22.570312 127.019531 18.480469 123.574219 18.058594 Z M 73.5 54 C 80.941406 54 87 60.058594 87 67.5 C 87 68.34375 86.894531 69.164062 86.753906 69.972656 C 85.828125 65.976562 82.265625 63 78 63 C 77.742188 63 77.507812 63.058594 77.25 63.082031 C 79.382812 63.433594 81 65.273438 81 67.5 C 81 69.984375 78.984375 72 76.5 72 C 74.015625 72 72 69.984375 72 67.5 C 72 66.28125 72.492188 65.179688 73.277344 64.371094 C 70.722656 65.953125 69 68.765625 69 72 C 69 76.265625 71.976562 79.828125 75.972656 80.753906 C 75.164062 80.894531 74.34375 81 73.5 81 C 66.058594 81 60 74.941406 60 67.5 C 60 60.058594 66.058594 54 73.5 54 Z M 46.5 57 C 49.910156 57 53.074219 58.664062 55.03125 61.394531 C 54.667969 62.472656 54.421875 63.585938 54.234375 64.734375 C 52.945312 63.667969 51.304688 63 49.5 63 C 49.289062 63 49.089844 63.046875 48.878906 63.058594 C 50.648438 63.363281 51.996094 64.898438 51.996094 66.75 C 51.996094 68.824219 50.320312 70.5 48.246094 70.5 C 46.183594 70.5 44.496094 68.824219 44.496094 66.75 C 44.496094 65.730469 44.90625 64.816406 45.5625 64.136719 C 43.429688 65.460938 42 67.804688 42 70.5 C 42 74.15625 44.625 77.203125 48.09375 77.859375 C 47.566406 77.941406 47.039062 78 46.5 78 C 44.285156 78 42.164062 77.320312 40.359375 76.019531 L 40.089844 75.832031 C 39.339844 74.039062 38.390625 72.28125 37.21875 70.605469 C 36.890625 70.148438 36.539062 69.714844 36.199219 69.28125 C 36.09375 68.695312 36 68.097656 36 67.5 C 36 61.710938 40.710938 57 46.5 57 Z M 18 66 C 21.316406 66 24 69.351562 24 73.5 C 24 77.648438 21.316406 81 18 81 C 14.683594 81 12 77.648438 12 73.5 C 12 69.351562 14.683594 66 18 66 Z M 93 84 C 93 84 96.703125 85.6875 99.351562 88.394531 C 99.363281 88.40625 99.375 88.417969 99.398438 88.441406 C 99.65625 88.699219 99.902344 88.96875 100.125 89.25 C 101.320312 90.703125 102.128906 92.390625 101.953125 94.230469 L 101.964844 94.242188 C 101.941406 94.5 101.90625 94.769531 101.847656 95.027344 C 101.671875 95.695312 101.34375 96.375 100.921875 97.078125 C 104.613281 98.296875 108.527344 99.808594 112.546875 101.625 C 119.929688 105 126.597656 108.890625 130.945312 112.300781 C 130.359375 113.167969 129.890625 114.164062 129.550781 115.265625 C 124.125 114.210938 116.90625 111.761719 109.464844 108.375 C 105.011719 106.335938 100.324219 103.453125 96.363281 100.792969 C 95.167969 101.261719 93.832031 101.566406 92.390625 101.753906 C 80.003906 103.382812 60 96 60 96 C 60 96 95.589844 97.96875 95.589844 91.03125 C 95.589844 87.574219 93 84 93 84 Z M 93 84 "/>
</g>
</svg>
