<?xml version="1.0" encoding="UTF-8"?>
<svg xmlns="http://www.w3.org/2000/svg" xmlns:xlink="http://www.w3.org/1999/xlink" viewBox="0 0 256 256" width="256px" height="256px">
<g id="surface10933404">
<path style=" stroke:none;fill-rule:nonzero;fill:rgb(42.352942%,45.882353%,49.019608%);fill-opacity:1;" d="M 24.109375 4 C 23.011719 3.96875 21.949219 4.394531 21.171875 5.171875 L 17.171875 9.171875 C 15.746094 10.597656 15.605469 12.863281 16.84375 14.453125 C 28.179688 29.03125 42.855469 46.835938 59.875 66.257812 C 40.21875 85.496094 28 112.34375 28 142 C 28 200.492188 75.507812 248 134 248 C 192.492188 248 240 200.492188 240 142 C 240 83.507812 192.492188 36 134 36 C 113.457031 36 94.28125 41.90625 78.03125 52.039062 C 58.976562 34.074219 41.425781 18.136719 26.65625 5.007812 C 25.953125 4.382812 25.050781 4.027344 24.109375 4 Z M 34.914062 23.507812 C 59.109375 45.289062 88.035156 72.15625 118.898438 103.125 L 111.617188 110.40625 C 80.816406 78.496094 54.75 48.164062 34.914062 23.507812 Z M 134 44 C 188.171875 44 232 87.828125 232 142 C 232 196.171875 188.171875 240 134 240 C 79.828125 240 36 196.171875 36 142 C 36 114.679688 47.175781 90.03125 65.1875 72.257812 C 78.398438 87.152344 92.804688 102.820312 108.421875 118.851562 C 108.476562 118.910156 108.53125 118.96875 108.585938 119.023438 C 114.804688 125.402344 121.199219 131.820312 127.726562 138.242188 C 127.976562 138.488281 128.21875 138.738281 128.46875 138.984375 C 130.902344 141.371094 133.449219 143.746094 135.921875 146.132812 C 129.15625 148.679688 124.957031 152.519531 122.695312 156.476562 C 119.769531 161.597656 120 166.796875 120 168 C 120 170.339844 118.867188 171.625 115.421875 172.4375 C 111.976562 173.25 106.507812 172.710938 100.570312 169.6875 C 95.476562 167.089844 88.855469 160.144531 83.453125 152.640625 C 78.054688 145.136719 73.644531 136.976562 72 132.59375 C 71.441406 131.039062 69.988281 129.988281 68.335938 129.945312 C 66.996094 129.910156 65.726562 130.550781 64.957031 131.648438 C 64.1875 132.746094 64.019531 134.15625 64.507812 135.40625 C 66.613281 141.023438 71.183594 149.289062 76.960938 157.3125 C 82.738281 165.335938 89.492188 173.019531 96.9375 176.8125 C 104.25 180.535156 111.398438 181.601562 117.265625 180.21875 C 123.132812 178.835938 128 174.121094 128 168 C 128 166.203125 127.902344 163.488281 129.640625 160.445312 C 131.273438 157.589844 134.558594 154.375 142.53125 152.46875 C 144.515625 154.355469 146.4375 156.25 148.445312 158.132812 C 151.777344 171.886719 159.285156 175.039062 165.976562 177.742188 C 167.382812 178.3125 168.8125 178.878906 170.210938 179.578125 C 175.75 182.351562 175.996094 191.832031 176 192.015625 C 176.003906 193.339844 176.660156 194.570312 177.757812 195.3125 C 178.429688 195.765625 179.210938 196 180 196 C 180.503906 196 181.003906 195.90625 181.476562 195.710938 C 189.183594 192.632812 192.3125 176.296875 187.789062 162.734375 C 183.574219 150.089844 168.832031 142.03125 166.5 140.820312 C 160.023438 133.851562 153.550781 127.007812 147.109375 120.304688 C 144.878906 117.984375 142.683594 115.78125 140.460938 113.492188 C 136.121094 109.027344 131.78125 104.539062 127.492188 100.210938 C 127.484375 100.203125 127.476562 100.195312 127.46875 100.1875 C 112.476562 85.0625 97.925781 70.929688 84.046875 57.742188 C 98.679688 49.042969 115.722656 44 134 44 Z M 128.710938 56.117188 C 127.578125 56.09375 126.492188 56.550781 125.714844 57.375 C 124.941406 58.195312 124.550781 59.308594 124.640625 60.4375 L 125.15625 68.421875 C 125.300781 70.625 127.207031 72.296875 129.410156 72.152344 C 131.613281 72.007812 133.285156 70.101562 133.140625 67.898438 L 132.625 59.921875 C 132.523438 57.824219 130.8125 56.160156 128.710938 56.117188 Z M 151.265625 57.796875 C 149.359375 57.800781 147.722656 59.148438 147.351562 61.015625 L 145.671875 68.835938 C 145.335938 70.246094 145.789062 71.730469 146.855469 72.710938 C 147.925781 73.695312 149.441406 74.019531 150.820312 73.5625 C 152.199219 73.109375 153.21875 71.941406 153.492188 70.515625 L 155.171875 62.695312 C 155.445312 61.507812 155.160156 60.257812 154.402344 59.304688 C 153.640625 58.347656 152.484375 57.792969 151.265625 57.796875 Z M 172.515625 65.609375 C 171.054688 65.644531 169.726562 66.472656 169.054688 67.773438 L 165.289062 74.828125 C 164.5625 76.09375 164.582031 77.652344 165.339844 78.902344 C 166.097656 80.148438 167.472656 80.882812 168.933594 80.820312 C 170.390625 80.753906 171.699219 79.902344 172.34375 78.59375 L 176.109375 71.539062 C 176.800781 70.285156 176.769531 68.757812 176.027344 67.535156 C 175.285156 66.3125 173.945312 65.578125 172.515625 65.609375 Z M 190.773438 78.984375 C 189.734375 79.035156 188.757812 79.484375 188.046875 80.242188 L 182.492188 86 C 181.433594 87.015625 181.015625 88.527344 181.398438 89.941406 C 181.785156 91.355469 182.914062 92.445312 184.339844 92.78125 C 185.769531 93.117188 187.265625 92.648438 188.242188 91.554688 L 193.804688 85.804688 C 194.972656 84.632812 195.300781 82.867188 194.628906 81.355469 C 193.957031 79.84375 192.425781 78.902344 190.773438 78.984375 Z M 124.554688 108.78125 C 135.636719 120 146.945312 131.738281 158.367188 143.976562 L 151.976562 150.367188 C 139.816406 138.914062 128.195312 127.464844 117.15625 116.179688 Z M 102.039062 135.445312 C 99.816406 135.476562 97.984375 136.414062 97.070312 138 C 95.414062 140.871094 97.175781 144.988281 101 147.195312 C 104.824219 149.402344 109.265625 148.867188 110.921875 146 C 112.578125 143.132812 110.824219 139.015625 107 136.804688 C 105.433594 135.902344 103.6875 135.421875 102.039062 135.445312 Z M 60.953125 157.09375 C 59.613281 157.054688 58.339844 157.6875 57.566406 158.78125 C 56.789062 159.878906 56.617188 161.289062 57.101562 162.539062 C 59.222656 168.253906 61.957031 173.660156 65.234375 178.6875 C 66.007812 179.902344 67.371094 180.609375 68.8125 180.539062 C 70.25 180.464844 71.539062 179.625 72.183594 178.339844 C 72.832031 177.054688 72.738281 175.519531 71.9375 174.320312 C 68.980469 169.78125 66.511719 164.902344 64.601562 159.75 C 64.046875 158.199219 62.601562 157.144531 60.953125 157.09375 Z M 199.9375 176.695312 C 197.730469 176.730469 195.96875 178.542969 196 180.75 C 196 187.324219 193.398438 196.082031 185.898438 203.078125 C 178.398438 210.074219 165.820312 215.609375 145.070312 215.25 C 145.015625 215.25 144.960938 215.25 144.90625 215.25 C 113.234375 215.96875 94.605469 200.90625 81.835938 186.5 C 80.367188 184.847656 77.839844 184.695312 76.1875 186.164062 C 74.535156 187.632812 74.382812 190.160156 75.851562 191.8125 C 89.386719 207.085938 110.746094 224 145.039062 223.242188 C 167.222656 223.605469 182.121094 217.535156 191.351562 208.921875 C 200.601562 200.292969 204 189.421875 204 180.75 C 204.015625 179.667969 203.589844 178.628906 202.824219 177.863281 C 202.0625 177.101562 201.019531 176.679688 199.9375 176.695312 Z M 199.9375 176.695312 "/>
</g>
</svg>
