<?xml version="1.0" encoding="UTF-8"?>
<svg xmlns="http://www.w3.org/2000/svg" xmlns:xlink="http://www.w3.org/1999/xlink" viewBox="0 0 150 150" width="150px" height="150px">
<g id="surface10664571">
<path style=" stroke:none;fill-rule:nonzero;fill:rgb(42.352942%,45.882353%,49.019608%);fill-opacity:1;" d="M 132.769531 16 L 95.535156 6.097656 C 94.960938 5.945312 94.347656 5.96875 93.789062 6.160156 L 17.023438 32.5625 C 15.8125 32.980469 15 34.117188 15 35.398438 L 15 114.824219 C 15 115.914062 15.859375 117.035156 17.023438 117.4375 L 93.789062 143.839844 C 94.105469 143.941406 94.433594 144 94.765625 144 C 95.023438 144 95.28125 143.96875 95.535156 143.902344 L 132.769531 134 C 134.085938 133.648438 135 132.460938 135 131.101562 L 135 18.898438 C 135 17.539062 134.085938 16.351562 132.769531 16 Z M 90 32.480469 L 90 121.078125 L 24.460938 112.429688 L 46.03125 104.515625 C 47.214844 104.085938 48 102.960938 48 101.699219 L 48 41.144531 Z M 90 32.480469 "/>
</g>
</svg>
