<?xml version="1.0" encoding="UTF-8"?>
<svg xmlns="http://www.w3.org/2000/svg" xmlns:xlink="http://www.w3.org/1999/xlink" viewBox="0 0 150 150" width="150px" height="150px">
<g id="surface10666912">
<path style=" stroke:none;fill-rule:nonzero;fill:rgb(42.352942%,45.882353%,49.019608%);fill-opacity:1;" d="M 18 12 C 14.699219 12 12 14.699219 12 18 L 12 132 C 12 135.300781 14.699219 138 18 138 L 132 138 C 135.300781 138 138 135.300781 138 132 L 138 18 C 138 14.699219 135.300781 12 132 12 Z M 55.742188 42 C 61.710938 42 66.78125 43.441406 70.171875 46.710938 C 73.230469 49.769531 74.847656 54.480469 74.847656 60.152344 C 74.847656 66.09375 73.410156 70.113281 70.921875 73.382812 C 67.472656 78.183594 61.414062 80.578125 55.652344 80.578125 C 54.421875 80.578125 53.460938 80.582031 52.382812 80.488281 L 52.382812 108 L 45 108 L 45 43.257812 C 47.96875 42.480469 51.421875 42 55.742188 42 Z M 56.941406 46.921875 C 55.203125 46.921875 53.757812 47.101562 52.796875 47.402344 L 52.796875 73.230469 C 53.667969 73.320312 54.539062 73.414062 55.769531 73.414062 C 62.96875 73.414062 67.855469 68.609375 67.855469 59.492188 C 67.855469 52.859375 65.191406 46.921875 56.941406 46.921875 Z M 95.132812 60 C 98.941406 60 101.699219 61.171875 103.710938 62.402344 L 101.703125 68.011719 C 99.8125 66.75 97.828125 65.882812 95.25 65.882812 C 91.171875 65.882812 89.070312 68.757812 89.070312 71.847656 C 89.070312 74.9375 90.269531 76.765625 95.039062 79.859375 C 100.617188 83.335938 105 87.65625 105 94.109375 C 105 103.46875 98.429688 108 90.453125 108 C 86.972656 108 83.101562 106.949219 81 105.300781 L 82.890625 99.722656 C 84.601562 100.769531 87.570312 102.117188 90.660156 102.117188 C 94.953125 102.117188 97.738281 99.507812 97.738281 95.367188 C 97.738281 91.796875 96.449219 89.3125 91.558594 86.222656 C 85.289062 82.261719 81.902344 78.210938 81.902344 72.933594 C 81.902344 65.3125 87.664062 60 95.132812 60 Z M 95.132812 60 "/>
</g>
</svg>
